<svg width="459" height="535" viewBox="0 0 459 535" fill="none" xmlns="http://www.w3.org/2000/svg">
<g clip-path="url(#clip0_2508_1611)">
<rect width="459" height="535" fill="#182D59"/>
<line x1="72.5" y1="1004" x2="72.5" y2="8" stroke="white" stroke-opacity="0.07"/>
<line x1="72.5" y1="1004" x2="72.5" y2="8" stroke="white" stroke-opacity="0.07"/>
<line x1="72.5" y1="1004" x2="72.5" y2="8" stroke="white" stroke-opacity="0.07"/>
<line x1="127.5" y1="1004" x2="127.5" y2="8" stroke="white" stroke-opacity="0.07"/>
<line x1="127.5" y1="1004" x2="127.5" y2="8" stroke="white" stroke-opacity="0.07"/>
<line x1="127.5" y1="1004" x2="127.5" y2="8" stroke="white" stroke-opacity="0.07"/>
<line x1="181.5" y1="1004" x2="181.5" y2="8" stroke="white" stroke-opacity="0.07"/>
<line x1="181.5" y1="1004" x2="181.5" y2="8" stroke="white" stroke-opacity="0.07"/>
<line x1="181.5" y1="1004" x2="181.5" y2="8" stroke="white" stroke-opacity="0.07"/>
<line x1="236.5" y1="1004" x2="236.5" y2="8" stroke="white" stroke-opacity="0.07"/>
<line x1="236.5" y1="1004" x2="236.5" y2="8" stroke="white" stroke-opacity="0.07"/>
<line x1="236.5" y1="1004" x2="236.5" y2="8" stroke="white" stroke-opacity="0.07"/>
<line x1="291.5" y1="1004" x2="291.5" y2="8" stroke="white" stroke-opacity="0.07"/>
<line x1="291.5" y1="1004" x2="291.5" y2="8" stroke="white" stroke-opacity="0.07"/>
<line x1="291.5" y1="1004" x2="291.5" y2="8" stroke="white" stroke-opacity="0.07"/>
<line x1="345.5" y1="1004" x2="345.5" y2="8" stroke="white" stroke-opacity="0.07"/>
<line x1="345.5" y1="1004" x2="345.5" y2="8" stroke="white" stroke-opacity="0.07"/>
<line x1="345.5" y1="1004" x2="345.5" y2="8" stroke="white" stroke-opacity="0.07"/>
<line x1="400.5" y1="1004" x2="400.5" y2="8" stroke="white" stroke-opacity="0.07"/>
<line x1="400.5" y1="1004" x2="400.5" y2="8" stroke="white" stroke-opacity="0.07"/>
<line x1="400.5" y1="1004" x2="400.5" y2="8" stroke="white" stroke-opacity="0.07"/>
<line x1="455.5" y1="1004" x2="455.5" y2="8" stroke="white" stroke-opacity="0.07"/>
<line x1="455.5" y1="1004" x2="455.5" y2="8" stroke="white" stroke-opacity="0.07"/>
<line x1="455.5" y1="1004" x2="455.5" y2="8" stroke="white" stroke-opacity="0.07"/>
<line x1="-3" y1="74.5" x2="1142" y2="74.5" stroke="white" stroke-opacity="0.07"/>
<line x1="-3" y1="74.5" x2="1142" y2="74.5" stroke="white" stroke-opacity="0.07"/>
<line x1="-3" y1="74.5" x2="1142" y2="74.5" stroke="white" stroke-opacity="0.07"/>
<line x1="-7" y1="129.5" x2="1138" y2="129.5" stroke="white" stroke-opacity="0.07"/>
<line x1="-7" y1="129.5" x2="1138" y2="129.5" stroke="white" stroke-opacity="0.07"/>
<line x1="-7" y1="129.5" x2="1138" y2="129.5" stroke="white" stroke-opacity="0.07"/>
<line x1="-10" y1="184.5" x2="1135" y2="184.5" stroke="white" stroke-opacity="0.07"/>
<line x1="-10" y1="184.5" x2="1135" y2="184.5" stroke="white" stroke-opacity="0.07"/>
<line x1="-10" y1="184.5" x2="1135" y2="184.5" stroke="white" stroke-opacity="0.07"/>
<line x1="-14" y1="239.5" x2="1131" y2="239.5" stroke="white" stroke-opacity="0.07"/>
<line x1="-14" y1="239.5" x2="1131" y2="239.5" stroke="white" stroke-opacity="0.07"/>
<line x1="-14" y1="239.5" x2="1131" y2="239.5" stroke="white" stroke-opacity="0.07"/>
<line x1="-18" y1="295.5" x2="1127" y2="295.5" stroke="white" stroke-opacity="0.07"/>
<line x1="-18" y1="295.5" x2="1127" y2="295.5" stroke="white" stroke-opacity="0.07"/>
<line x1="-18" y1="295.5" x2="1127" y2="295.5" stroke="white" stroke-opacity="0.07"/>
<line x1="-21" y1="350.5" x2="1124" y2="350.5" stroke="white" stroke-opacity="0.07"/>
<line x1="-21" y1="350.5" x2="1124" y2="350.5" stroke="white" stroke-opacity="0.07"/>
<line x1="-21" y1="350.5" x2="1124" y2="350.5" stroke="white" stroke-opacity="0.07"/>
<line x1="-25" y1="405.5" x2="1120" y2="405.5" stroke="white" stroke-opacity="0.07"/>
<line x1="-25" y1="405.5" x2="1120" y2="405.5" stroke="white" stroke-opacity="0.07"/>
<line x1="-25" y1="405.5" x2="1120" y2="405.5" stroke="white" stroke-opacity="0.07"/>
<line x1="-29" y1="461.5" x2="1116" y2="461.5" stroke="white" stroke-opacity="0.07"/>
<line x1="-29" y1="461.5" x2="1116" y2="461.5" stroke="white" stroke-opacity="0.07"/>
<line x1="-29" y1="461.5" x2="1116" y2="461.5" stroke="white" stroke-opacity="0.07"/>
<line x1="-32" y1="516.5" x2="1113" y2="516.5" stroke="white" stroke-opacity="0.07"/>
<line x1="-32" y1="516.5" x2="1113" y2="516.5" stroke="white" stroke-opacity="0.07"/>
<line x1="-32" y1="516.5" x2="1113" y2="516.5" stroke="white" stroke-opacity="0.07"/>
<g filter="url(#filter0_f_2508_1611)">
<ellipse cx="-91" cy="817" rx="273" ry="331" fill="#FDCD2A" fill-opacity="0.5"/>
</g>
<path d="M60.6369 167.484H47.8018V224.908H60.6369V167.484Z" fill="#00BDFE"/>
<path d="M328.571 167.484H315.736V224.908H328.571V167.484Z" fill="#00BDFE"/>
<path d="M120 167.484H107.165V224.908H120V167.484Z" fill="#00BDFE"/>
<path d="M114.385 167.485V175.46H144.066V167.485H114.385Z" fill="#00BDFE"/>
<path d="M161.714 167.485V175.46H191.395V167.485H161.714Z" fill="#00BDFE"/>
<path d="M202.626 167.485V175.46H245.945V167.485H202.626Z" fill="#00BDFE"/>
<path d="M371.088 167.485V175.46H414.407V167.485H371.088Z" fill="#00BDFE"/>
<path d="M230.703 170.675H217.868V224.908H230.703V170.675Z" fill="#00BDFE"/>
<path d="M399.165 170.675H386.33V224.908H399.165V170.675Z" fill="#00BDFE"/>
<path d="M267.605 170.675H260.385V224.908H267.605V170.675Z" fill="#00BDFE"/>
<path d="M302.099 170.675H285.253V224.908H302.099V170.675Z" fill="#00BDFE"/>
<path d="M266 164.294V180.245H290.066V164.294H266Z" fill="#00BDFE"/>
<path d="M266 197.791V203.374H290.066V197.791H266Z" fill="#00BDFE"/>
<path d="M156.099 216.933V224.908H185.78V216.933H156.099Z" fill="#00BDFE"/>
<path d="M172.945 175.46H156.099V187.423H172.945V175.46Z" fill="#00BDFE"/>
<path d="M160.912 185.031V193.804H180.165V185.031H160.912Z" fill="#00BDFE"/>
<path d="M169.736 193.803V203.374H188.187V193.803H169.736Z" fill="#00BDFE"/>
<path d="M177.758 203.374V216.933H195.406V203.374H177.758Z" fill="#00BDFE"/>
<path d="M114.385 216.933V224.908H144.066V216.933H114.385Z" fill="#00BDFE"/>
<path d="M114.385 182.638V190.613H139.253V182.638H114.385Z" fill="#00BDFE"/>
<path d="M47.8018 167.485V175.46H83.0985V167.485H47.8018Z" fill="#00BDFE"/>
<path d="M315.736 167.485V175.46H351.033V167.485H315.736Z" fill="#00BDFE"/>
<path d="M79.0879 175.46V190.613H91.1209V175.46H79.0879Z" fill="#00BDFE"/>
<path d="M347.021 175.46V190.613H359.054V175.46H347.021Z" fill="#00BDFE"/>
<path d="M72.6699 196.994V206.564H84.7029V196.994H72.6699Z" fill="#00BDFE"/>
<path d="M340.604 196.994V206.564H352.637V196.994H340.604Z" fill="#00BDFE"/>
<path d="M76.6816 206.564V218.527H91.1212V206.564H76.6816Z" fill="#00BDFE"/>
<path d="M344.615 206.564V218.527H359.055V206.564H344.615Z" fill="#00BDFE"/>
<path d="M56.626 190.614V196.994H84.7029V190.614H56.626Z" fill="#00BDFE"/>
<path d="M324.561 190.614V196.994H352.637V190.614H324.561Z" fill="#00BDFE"/>
<path d="M76.6816 218.528V224.908H99.1432V218.528H76.6816Z" fill="#00BDFE"/>
<path d="M344.615 218.528V224.908H367.077V218.528H344.615Z" fill="#00BDFE"/>
<path d="M53.4172 167.484H40.582V224.908H53.4172V167.484Z" fill="#FD1D1D"/>
<path d="M321.352 167.484H308.517V224.908H321.352V167.484Z" fill="#FD1D1D"/>
<path d="M112.78 167.484H99.9453V224.908H112.78V167.484Z" fill="#FD1D1D"/>
<path d="M107.165 167.485V175.46H136.846V167.485H107.165Z" fill="#FD1D1D"/>
<path d="M154.494 167.485V175.46H184.175V167.485H154.494Z" fill="#FD1D1D"/>
<path d="M195.406 167.485V175.46H238.725V167.485H195.406Z" fill="#FD1D1D"/>
<path d="M363.868 167.485V175.46H407.187V167.485H363.868Z" fill="#FD1D1D"/>
<path d="M223.484 170.675H210.648V224.908H223.484V170.675Z" fill="#FD1D1D"/>
<path d="M391.946 170.675H379.11V224.908H391.946V170.675Z" fill="#FD1D1D"/>
<path d="M260.385 170.675H253.165V224.908H260.385V170.675Z" fill="#FD1D1D"/>
<path d="M294.879 170.675H278.033V224.908H294.879V170.675Z" fill="#FD1D1D"/>
<path d="M258.78 164.294V180.245H282.846V164.294H258.78Z" fill="#FD1D1D"/>
<path d="M258.78 197.791V203.374H282.846V197.791H258.78Z" fill="#FD1D1D"/>
<path d="M148.879 216.933V224.908H178.56V216.933H148.879Z" fill="#FD1D1D"/>
<path d="M165.725 175.46H148.879V187.423H165.725V175.46Z" fill="#FD1D1D"/>
<path d="M153.692 185.031V193.804H172.945V185.031H153.692Z" fill="#FD1D1D"/>
<path d="M162.517 193.803V203.374H180.967V193.803H162.517Z" fill="#FD1D1D"/>
<path d="M170.538 203.374V216.933H188.186V203.374H170.538Z" fill="#FD1D1D"/>
<path d="M107.165 216.933V224.908H136.846V216.933H107.165Z" fill="#FD1D1D"/>
<path d="M107.165 182.638V190.613H132.033V182.638H107.165Z" fill="#FD1D1D"/>
<path d="M40.582 167.485V175.46H75.8787V167.485H40.582Z" fill="#FD1D1D"/>
<path d="M308.517 167.485V175.46H343.813V167.485H308.517Z" fill="#FD1D1D"/>
<path d="M71.8682 175.46V190.613H83.9011V175.46H71.8682Z" fill="#FD1D1D"/>
<path d="M339.802 175.46V190.613H351.835V175.46H339.802Z" fill="#FD1D1D"/>
<path d="M65.4502 196.994V206.564H77.4832V196.994H65.4502Z" fill="#FD1D1D"/>
<path d="M333.385 196.994V206.564H345.418V196.994H333.385Z" fill="#FD1D1D"/>
<path d="M69.4619 206.564V218.527H83.9015V206.564H69.4619Z" fill="#FD1D1D"/>
<path d="M337.396 206.564V218.527H351.835V206.564H337.396Z" fill="#FD1D1D"/>
<path d="M49.4062 190.614V196.994H77.4832V190.614H49.4062Z" fill="#FD1D1D"/>
<path d="M317.341 190.614V196.994H345.418V190.614H317.341Z" fill="#FD1D1D"/>
<path d="M69.4619 218.528V224.908H91.9235V218.528H69.4619Z" fill="#FD1D1D"/>
<path d="M337.396 218.528V224.908H359.857V218.528H337.396Z" fill="#FD1D1D"/>
<path d="M56.6262 167.484H43.791V224.908H56.6262V167.484Z" fill="#FFDC80"/>
<path d="M324.561 167.484H311.726V224.908H324.561V167.484Z" fill="#FFDC80"/>
<path d="M115.989 167.484H103.154V224.908H115.989V167.484Z" fill="#FFDC80"/>
<path d="M110.374 167.485V175.46H140.055V167.485H110.374Z" fill="#FFDC80"/>
<path d="M157.703 167.485V175.46H187.384V167.485H157.703Z" fill="#FFDC80"/>
<path d="M198.615 167.485V175.46H241.934V167.485H198.615Z" fill="#FFDC80"/>
<path d="M367.077 167.485V175.46H410.396V167.485H367.077Z" fill="#FFDC80"/>
<path d="M226.693 170.675H213.857V224.908H226.693V170.675Z" fill="#FFDC80"/>
<path d="M395.154 170.675H382.318V224.908H395.154V170.675Z" fill="#FFDC80"/>
<path d="M263.594 170.675H256.374V224.908H263.594V170.675Z" fill="#FFDC80"/>
<path d="M298.088 170.675H281.242V224.908H298.088V170.675Z" fill="#FFDC80"/>
<path d="M261.989 164.294V180.245H286.055V164.294H261.989Z" fill="#FFDC80"/>
<path d="M261.989 197.791V203.374H286.055V197.791H261.989Z" fill="#FFDC80"/>
<path d="M152.088 216.933V224.908H181.769V216.933H152.088Z" fill="#FFDC80"/>
<path d="M168.934 175.46H152.088V187.423H168.934V175.46Z" fill="#FFDC80"/>
<path d="M156.901 185.031V193.804H176.154V185.031H156.901Z" fill="#FFDC80"/>
<path d="M165.726 193.803V203.374H184.176V193.803H165.726Z" fill="#FFDC80"/>
<path d="M173.747 203.374V216.933H191.395V203.374H173.747Z" fill="#FFDC80"/>
<path d="M110.374 216.933V224.908H140.055V216.933H110.374Z" fill="#FFDC80"/>
<path d="M110.374 182.638V190.613H135.242V182.638H110.374Z" fill="#FFDC80"/>
<path d="M43.791 167.485V175.46H79.0877V167.485H43.791Z" fill="#FFDC80"/>
<path d="M311.726 167.485V175.46H347.022V167.485H311.726Z" fill="#FFDC80"/>
<path d="M75.0771 175.46V190.613H87.1101V175.46H75.0771Z" fill="#FFDC80"/>
<path d="M343.011 175.46V190.613H355.044V175.46H343.011Z" fill="#FFDC80"/>
<path d="M68.6592 196.994V206.564H80.6921V196.994H68.6592Z" fill="#FFDC80"/>
<path d="M336.594 196.994V206.564H348.627V196.994H336.594Z" fill="#FFDC80"/>
<path d="M72.6699 206.564V218.527H87.1095V206.564H72.6699Z" fill="#FFDC80"/>
<path d="M340.604 206.564V218.527H355.044V206.564H340.604Z" fill="#FFDC80"/>
<path d="M52.6152 190.614V196.994H80.6922V190.614H52.6152Z" fill="#FFDC80"/>
<path d="M320.55 190.614V196.994H348.627V190.614H320.55Z" fill="#FFDC80"/>
<path d="M72.6699 218.528V224.908H95.1315V218.528H72.6699Z" fill="#FFDC80"/>
<path d="M340.604 218.528V224.908H363.066V218.528H340.604Z" fill="#FFDC80"/>
<path d="M85.1224 251.446C84.0266 251.446 83.0102 251.267 82.074 250.908C81.1387 250.549 80.3293 250.044 79.6474 249.392C78.9655 248.741 78.4313 247.983 78.043 247.119C77.6692 246.242 77.4814 245.285 77.4814 244.248C77.4814 243.211 77.6692 242.261 78.043 241.397C78.4313 240.52 78.9655 239.756 79.6474 239.104C80.3293 238.453 81.1387 237.948 82.074 237.589C83.0102 237.23 84.0266 237.05 85.1224 237.05C86.219 237.05 87.2282 237.23 88.1507 237.589C89.0868 237.934 89.8955 238.433 90.5773 239.084C91.2592 239.736 91.7878 240.5 92.1617 241.377C92.5499 242.254 92.7433 243.211 92.7433 244.248C92.7433 245.285 92.5499 246.242 92.1617 247.119C91.7878 247.997 91.2592 248.761 90.5773 249.412C89.8955 250.064 89.0868 250.569 88.1507 250.928C87.2282 251.273 86.219 251.446 85.1224 251.446ZM85.1224 248.894C85.7778 248.894 86.3794 248.781 86.9273 248.555C87.4889 248.329 87.9774 248.01 88.3913 247.598C88.8061 247.173 89.127 246.681 89.354 246.123C89.5946 245.551 89.715 244.926 89.715 244.248C89.715 243.557 89.5946 242.932 89.354 242.374C89.127 241.816 88.8061 241.331 88.3913 240.919C87.9774 240.493 87.4889 240.167 86.9273 239.942C86.3794 239.716 85.7778 239.603 85.1224 239.603C84.4678 239.603 83.8589 239.722 83.2974 239.961C82.7358 240.187 82.2481 240.506 81.8334 240.919C81.4194 241.331 81.0986 241.822 80.8707 242.394C80.6437 242.952 80.5298 243.57 80.5298 244.248C80.5298 244.926 80.6437 245.551 80.8707 246.123C81.0986 246.681 81.4194 247.173 81.8334 247.598C82.2481 248.01 82.7358 248.329 83.2974 248.555C83.8589 248.781 84.4678 248.894 85.1224 248.894ZM105.8 251.366C104.65 251.366 103.627 251.133 102.731 250.669C101.836 250.204 101.134 249.558 100.626 248.734C100.118 247.897 99.8636 246.946 99.8636 245.883C99.8636 244.807 100.118 243.856 100.626 243.032C101.134 242.208 101.836 241.563 102.731 241.098C103.627 240.619 104.65 240.38 105.8 240.38C106.896 240.38 107.859 240.606 108.688 241.058C109.517 241.51 110.132 242.161 110.533 243.012L108.307 244.248C107.999 243.743 107.625 243.371 107.184 243.132C106.756 242.892 106.288 242.773 105.78 242.773C105.218 242.773 104.71 242.899 104.256 243.152C103.814 243.404 103.461 243.763 103.193 244.228C102.926 244.681 102.792 245.232 102.792 245.883C102.792 246.521 102.926 247.073 103.193 247.538C103.461 248.003 103.814 248.362 104.256 248.615C104.71 248.854 105.218 248.974 105.78 248.974C106.288 248.974 106.756 248.86 107.184 248.635C107.625 248.396 107.999 248.017 108.307 247.498L110.533 248.734C110.132 249.585 109.517 250.236 108.688 250.688C107.859 251.141 106.896 251.366 105.8 251.366ZM112.497 251.227V240.54H115.264V243.53L114.903 242.653C115.21 241.909 115.712 241.344 116.407 240.958C117.116 240.573 117.984 240.38 119.014 240.38V243.072C118.88 243.058 118.76 243.046 118.653 243.032C118.56 243.018 118.459 243.012 118.353 243.012C117.457 243.012 116.741 243.271 116.207 243.79C115.672 244.295 115.405 245.072 115.405 246.123V251.227H112.497ZM120.977 251.227V240.54H123.885V251.227H120.977ZM122.421 238.945C121.886 238.945 121.444 238.785 121.097 238.466C120.762 238.147 120.596 237.755 120.596 237.29C120.596 236.825 120.762 236.432 121.097 236.113C121.444 235.794 121.886 235.635 122.421 235.635C122.956 235.635 123.39 235.788 123.724 236.093C124.071 236.386 124.246 236.765 124.246 237.23C124.246 237.722 124.079 238.133 123.744 238.466C123.41 238.785 122.968 238.945 122.421 238.945ZM130.44 251.366C129.53 251.366 128.655 251.26 127.813 251.047C126.971 250.822 126.302 250.543 125.807 250.21L126.83 248.116C127.312 248.422 127.886 248.668 128.555 248.854C129.237 249.04 129.911 249.133 130.581 249.133C131.329 249.133 131.857 249.04 132.165 248.854C132.486 248.668 132.646 248.415 132.646 248.096C132.646 247.831 132.526 247.631 132.285 247.498C132.057 247.352 131.75 247.245 131.363 247.179C130.974 247.099 130.547 247.026 130.079 246.96C129.611 246.894 129.143 246.807 128.675 246.701C128.207 246.581 127.779 246.415 127.392 246.202C127.004 245.977 126.69 245.67 126.449 245.285C126.221 244.9 126.108 244.401 126.108 243.79C126.108 243.125 126.302 242.54 126.69 242.035C127.077 241.517 127.632 241.112 128.354 240.819C129.089 240.526 129.965 240.38 130.982 240.38C131.716 240.38 132.458 240.46 133.208 240.619C133.956 240.779 134.584 241.012 135.093 241.317L134.07 243.411C133.562 243.105 133.04 242.899 132.506 242.793C131.984 242.673 131.476 242.613 130.982 242.613C130.26 242.613 129.725 242.713 129.377 242.912C129.043 243.112 128.876 243.371 128.876 243.69C128.876 243.969 128.996 244.182 129.237 244.328C129.478 244.474 129.791 244.587 130.179 244.667C130.567 244.747 130.994 244.82 131.463 244.886C131.931 244.953 132.392 245.046 132.847 245.165C133.314 245.272 133.742 245.438 134.13 245.664C134.531 245.877 134.845 246.169 135.073 246.541C135.314 246.914 135.434 247.405 135.434 248.017C135.434 248.681 135.233 249.266 134.832 249.771C134.444 250.276 133.876 250.669 133.128 250.948C132.392 251.227 131.496 251.366 130.44 251.366ZM141.739 251.366C140.496 251.366 139.533 251.054 138.851 250.429C138.169 249.805 137.828 248.874 137.828 247.638V238.167H140.716V247.578C140.716 248.043 140.837 248.409 141.077 248.675C141.331 248.94 141.679 249.073 142.12 249.073C142.642 249.073 143.083 248.934 143.444 248.655L144.226 250.688C143.918 250.914 143.544 251.087 143.103 251.207C142.662 251.313 142.207 251.366 141.739 251.366ZM136.124 242.952V240.699H143.484V242.952H136.124ZM152.702 251.227V249.113L152.542 248.655V244.886C152.542 244.208 152.327 243.676 151.9 243.291C151.485 242.906 150.843 242.713 149.974 242.713C149.386 242.713 148.811 242.806 148.25 242.992C147.688 243.165 147.207 243.411 146.806 243.73L145.743 241.696C146.331 241.271 147.033 240.945 147.849 240.719C148.664 240.493 149.5 240.38 150.356 240.38C151.974 240.38 153.223 240.759 154.106 241.517C154.988 242.274 155.429 243.457 155.429 245.066V251.227H152.702ZM149.393 251.366C148.564 251.366 147.849 251.227 147.247 250.948C146.645 250.669 146.184 250.29 145.863 249.811C145.542 249.319 145.382 248.768 145.382 248.156C145.382 247.532 145.529 246.98 145.823 246.501C146.13 246.023 146.619 245.65 147.287 245.385C147.969 245.106 148.851 244.966 149.934 244.966H152.882V246.701H150.235C149.447 246.701 148.912 246.827 148.631 247.08C148.35 247.332 148.21 247.651 148.21 248.037C148.21 248.449 148.37 248.781 148.691 249.034C149.025 249.273 149.487 249.392 150.075 249.392C150.636 249.392 151.138 249.266 151.579 249.014C152.02 248.748 152.341 248.362 152.542 247.857L152.983 249.313C152.756 249.977 152.335 250.489 151.719 250.848C151.118 251.193 150.342 251.366 149.393 251.366ZM152.12 239.164C151.786 239.164 151.485 239.104 151.218 238.984C150.951 238.851 150.71 238.699 150.496 238.526C150.282 238.353 150.081 238.207 149.894 238.087C149.72 237.954 149.54 237.888 149.353 237.888C149.072 237.888 148.845 237.988 148.671 238.187C148.497 238.386 148.397 238.665 148.37 239.024H146.886C146.912 238.161 147.127 237.476 147.528 236.971C147.929 236.466 148.47 236.213 149.152 236.213C149.487 236.213 149.788 236.279 150.055 236.412C150.322 236.532 150.562 236.678 150.777 236.851C151.004 237.024 151.204 237.176 151.378 237.31C151.565 237.429 151.746 237.489 151.92 237.489C152.214 237.489 152.448 237.396 152.622 237.21C152.796 237.011 152.889 236.738 152.902 236.392H154.387C154.373 237.216 154.16 237.888 153.745 238.406C153.344 238.911 152.802 239.164 152.12 239.164ZM163.475 251.366C162.34 251.366 161.33 251.133 160.447 250.669C159.578 250.19 158.89 249.538 158.382 248.715C157.874 247.891 157.619 246.946 157.619 245.883C157.619 244.807 157.874 243.856 158.382 243.032C158.89 242.208 159.578 241.563 160.447 241.098C161.33 240.619 162.34 240.38 163.475 240.38C164.599 240.38 165.601 240.619 166.484 241.098C167.366 241.563 168.055 242.208 168.549 243.032C169.058 243.843 169.311 244.793 169.311 245.883C169.311 246.946 169.058 247.891 168.549 248.715C168.055 249.538 167.366 250.19 166.484 250.669C165.601 251.133 164.599 251.366 163.475 251.366ZM163.475 248.974C164.037 248.974 164.532 248.854 164.96 248.615C165.401 248.362 165.749 248.003 166.002 247.538C166.257 247.06 166.383 246.508 166.383 245.883C166.383 245.232 166.257 244.681 166.002 244.228C165.749 243.763 165.401 243.404 164.96 243.152C164.532 242.899 164.037 242.773 163.475 242.773C162.928 242.773 162.433 242.899 161.991 243.152C161.55 243.404 161.196 243.763 160.928 244.228C160.675 244.681 160.547 245.232 160.547 245.883C160.547 246.508 160.675 247.06 160.928 247.538C161.196 248.003 161.544 248.362 161.971 248.615C162.413 248.854 162.914 248.974 163.475 248.974ZM182.38 251.366C181.164 251.366 180.094 251.133 179.171 250.669C178.262 250.19 177.554 249.538 177.045 248.715C176.551 247.877 176.303 246.934 176.303 245.883C176.303 244.807 176.551 243.856 177.045 243.032C177.54 242.208 178.216 241.563 179.071 241.098C179.927 240.619 180.896 240.38 181.979 240.38C183.035 240.38 183.978 240.606 184.807 241.058C185.649 241.51 186.311 242.148 186.792 242.972C187.273 243.796 187.514 244.78 187.514 245.923C187.514 246.043 187.508 246.176 187.494 246.322C187.494 246.468 187.488 246.601 187.474 246.721H178.65V244.966H185.95L184.807 245.504C184.82 244.933 184.706 244.428 184.466 243.989C184.225 243.55 183.891 243.211 183.463 242.972C183.049 242.733 182.561 242.613 181.999 242.613C181.437 242.613 180.936 242.733 180.495 242.972C180.067 243.211 179.733 243.557 179.492 244.009C179.265 244.448 179.151 244.96 179.151 245.544V246.003C179.151 246.601 179.285 247.133 179.552 247.598C179.833 248.05 180.221 248.402 180.715 248.655C181.21 248.908 181.792 249.034 182.46 249.034C183.035 249.034 183.55 248.947 184.005 248.774C184.459 248.589 184.867 248.309 185.228 247.937L186.792 249.652C186.284 250.21 185.663 250.635 184.927 250.928C184.192 251.22 183.343 251.366 182.38 251.366ZM200.374 251.366C199.237 251.366 198.228 251.133 197.346 250.669C196.476 250.19 195.788 249.538 195.28 248.715C194.772 247.891 194.518 246.946 194.518 245.883C194.518 244.807 194.772 243.856 195.28 243.032C195.788 242.208 196.476 241.563 197.346 241.098C198.228 240.619 199.237 240.38 200.374 240.38C201.497 240.38 202.5 240.619 203.382 241.098C204.265 241.563 204.953 242.208 205.448 243.032C205.956 243.843 206.21 244.793 206.21 245.883C206.21 246.946 205.956 247.891 205.448 248.715C204.953 249.538 204.265 250.19 203.382 250.669C202.5 251.133 201.497 251.366 200.374 251.366ZM200.374 248.974C200.936 248.974 201.43 248.854 201.858 248.615C202.299 248.362 202.647 248.003 202.901 247.538C203.155 247.06 203.282 246.508 203.282 245.883C203.282 245.232 203.155 244.681 202.901 244.228C202.647 243.763 202.299 243.404 201.858 243.152C201.43 242.899 200.936 242.773 200.374 242.773C199.825 242.773 199.331 242.899 198.89 243.152C198.449 243.404 198.094 243.763 197.827 244.228C197.573 244.681 197.446 245.232 197.446 245.883C197.446 246.508 197.573 247.06 197.827 247.538C198.094 248.003 198.442 248.362 198.87 248.615C199.311 248.854 199.813 248.974 200.374 248.974ZM219.279 251.366C218.062 251.366 216.992 251.133 216.07 250.669C215.16 250.19 214.452 249.538 213.944 248.715C213.449 247.877 213.202 246.934 213.202 245.883C213.202 244.807 213.449 243.856 213.944 243.032C214.438 242.208 215.114 241.563 215.97 241.098C216.825 240.619 217.795 240.38 218.878 240.38C219.933 240.38 220.876 240.606 221.705 241.058C222.548 241.51 223.21 242.148 223.691 242.972C224.172 243.796 224.413 244.78 224.413 245.923C224.413 246.043 224.406 246.176 224.393 246.322C224.393 246.468 224.386 246.601 224.373 246.721H215.549V244.966H222.849L221.705 245.504C221.718 244.933 221.605 244.428 221.364 243.989C221.124 243.55 220.789 243.211 220.362 242.972C219.947 242.733 219.459 242.613 218.898 242.613C218.336 242.613 217.835 242.733 217.394 242.972C216.965 243.211 216.631 243.557 216.391 244.009C216.163 244.448 216.05 244.96 216.05 245.544V246.003C216.05 246.601 216.183 247.133 216.451 247.598C216.732 248.05 217.119 248.402 217.614 248.655C218.108 248.908 218.69 249.034 219.359 249.034C219.933 249.034 220.448 248.947 220.903 248.774C221.357 248.589 221.766 248.309 222.127 247.937L223.691 249.652C223.182 250.21 222.561 250.635 221.826 250.928C221.09 251.22 220.241 251.366 219.279 251.366ZM232.995 240.38C233.863 240.38 234.632 240.553 235.301 240.899C235.969 241.231 236.497 241.742 236.885 242.434C237.286 243.125 237.487 244.015 237.487 245.106V251.227H234.579V245.524C234.579 244.633 234.379 243.976 233.977 243.55C233.576 243.112 233.008 242.892 232.273 242.892C231.738 242.892 231.263 243.006 230.849 243.231C230.434 243.444 230.113 243.77 229.886 244.208C229.658 244.647 229.545 245.205 229.545 245.883V251.227H226.637V240.54H229.405V243.471L228.883 242.573C229.271 241.869 229.819 241.331 230.528 240.958C231.25 240.573 232.072 240.38 232.995 240.38ZM244.736 251.366C243.492 251.366 242.53 251.054 241.848 250.429C241.166 249.805 240.825 248.874 240.825 247.638V238.167H243.713V247.578C243.713 248.043 243.833 248.409 244.074 248.675C244.328 248.94 244.676 249.073 245.117 249.073C245.638 249.073 246.079 248.934 246.44 248.655L247.223 250.688C246.915 250.914 246.541 251.087 246.099 251.207C245.658 251.313 245.203 251.366 244.736 251.366ZM239.12 242.952V240.699H246.48V242.952H239.12ZM249.101 251.227V240.54H251.869V243.53L251.508 242.653C251.815 241.909 252.316 241.344 253.012 240.958C253.72 240.573 254.589 240.38 255.619 240.38V243.072C255.485 243.058 255.365 243.046 255.258 243.032C255.164 243.018 255.064 243.012 254.957 243.012C254.061 243.012 253.346 243.271 252.811 243.79C252.276 244.295 252.009 245.072 252.009 246.123V251.227H249.101ZM262.718 251.366C261.501 251.366 260.431 251.133 259.509 250.669C258.6 250.19 257.891 249.538 257.383 248.715C256.888 247.877 256.641 246.934 256.641 245.883C256.641 244.807 256.888 243.856 257.383 243.032C257.878 242.208 258.553 241.563 259.409 241.098C260.265 240.619 261.234 240.38 262.317 240.38C263.373 240.38 264.316 240.606 265.144 241.058C265.987 241.51 266.649 242.148 267.13 242.972C267.611 243.796 267.852 244.78 267.852 245.923C267.852 246.043 267.845 246.176 267.832 246.322C267.832 246.468 267.825 246.601 267.812 246.721H258.988V244.966H266.288L265.144 245.504C265.158 244.933 265.044 244.428 264.803 243.989C264.563 243.55 264.228 243.211 263.801 242.972C263.386 242.733 262.898 242.613 262.337 242.613C261.775 242.613 261.274 242.733 260.833 242.972C260.405 243.211 260.071 243.557 259.83 244.009C259.603 244.448 259.489 244.96 259.489 245.544V246.003C259.489 246.601 259.623 247.133 259.89 247.598C260.171 248.05 260.558 248.402 261.053 248.655C261.548 248.908 262.13 249.034 262.798 249.034C263.373 249.034 263.887 248.947 264.342 248.774C264.797 248.589 265.205 248.309 265.566 247.937L267.13 249.652C266.622 250.21 266 250.635 265.265 250.928C264.529 251.22 263.68 251.366 262.718 251.366ZM274.348 251.366C273.105 251.366 272.142 251.054 271.46 250.429C270.778 249.805 270.437 248.874 270.437 247.638V238.167H273.325V247.578C273.325 248.043 273.446 248.409 273.686 248.675C273.941 248.94 274.288 249.073 274.729 249.073C275.251 249.073 275.692 248.934 276.053 248.655L276.835 250.688C276.528 250.914 276.153 251.087 275.712 251.207C275.271 251.313 274.816 251.366 274.348 251.366ZM268.733 242.952V240.699H276.093V242.952H268.733ZM283.615 251.366C282.398 251.366 281.329 251.133 280.406 250.669C279.497 250.19 278.788 249.538 278.28 248.715C277.785 247.877 277.538 246.934 277.538 245.883C277.538 244.807 277.785 243.856 278.28 243.032C278.775 242.208 279.45 241.563 280.306 241.098C281.161 240.619 282.131 240.38 283.214 240.38C284.27 240.38 285.212 240.606 286.042 241.058C286.884 241.51 287.546 242.148 288.027 242.972C288.508 243.796 288.749 244.78 288.749 245.923C288.749 246.043 288.742 246.176 288.729 246.322C288.729 246.468 288.722 246.601 288.709 246.721H279.885V244.966H287.185L286.042 245.504C286.055 244.933 285.941 244.428 285.701 243.989C285.46 243.55 285.126 243.211 284.698 242.972C284.283 242.733 283.796 242.613 283.234 242.613C282.672 242.613 282.171 242.733 281.73 242.972C281.301 243.211 280.968 243.557 280.727 244.009C280.499 244.448 280.386 244.96 280.386 245.544V246.003C280.386 246.601 280.519 247.133 280.787 247.598C281.068 248.05 281.455 248.402 281.95 248.655C282.445 248.908 283.026 249.034 283.695 249.034C284.27 249.034 284.785 248.947 285.239 248.774C285.694 248.589 286.102 248.309 286.463 247.937L288.027 249.652C287.519 250.21 286.897 250.635 286.162 250.928C285.426 251.22 284.578 251.366 283.615 251.366ZM297.331 240.38C298.2 240.38 298.969 240.553 299.637 240.899C300.306 241.231 300.834 241.742 301.222 242.434C301.623 243.125 301.823 244.015 301.823 245.106V251.227H298.915V245.524C298.915 244.633 298.715 243.976 298.314 243.55C297.913 243.112 297.345 242.892 296.609 242.892C296.074 242.892 295.6 243.006 295.185 243.231C294.77 243.444 294.45 243.77 294.222 244.208C293.995 244.647 293.882 245.205 293.882 245.883V251.227H290.974V240.54H293.741V243.471L293.22 242.573C293.607 241.869 294.156 241.331 294.864 240.958C295.586 240.573 296.408 240.38 297.331 240.38ZM304.8 251.227V240.54H307.708V251.227H304.8ZM306.244 238.945C305.71 238.945 305.269 238.785 304.921 238.466C304.587 238.147 304.419 237.755 304.419 237.29C304.419 236.825 304.587 236.432 304.921 236.113C305.269 235.794 305.71 235.635 306.244 235.635C306.779 235.635 307.214 235.788 307.548 236.093C307.896 236.386 308.069 236.765 308.069 237.23C308.069 237.722 307.902 238.133 307.568 238.466C307.234 238.785 306.793 238.945 306.244 238.945ZM324.452 240.38C325.308 240.38 326.063 240.553 326.718 240.899C327.386 241.231 327.908 241.742 328.282 242.434C328.67 243.125 328.864 244.015 328.864 245.106V251.227H325.956V245.524C325.956 244.633 325.762 243.976 325.374 243.55C325 243.112 324.465 242.892 323.77 242.892C323.289 242.892 322.854 242.999 322.466 243.211C322.079 243.424 321.778 243.75 321.564 244.188C321.363 244.614 321.263 245.159 321.263 245.823V251.227H318.355V245.524C318.355 244.633 318.161 243.976 317.773 243.55C317.399 243.112 316.865 242.892 316.169 242.892C315.674 242.892 315.233 242.999 314.845 243.211C314.471 243.424 314.177 243.75 313.963 244.188C313.762 244.614 313.662 245.159 313.662 245.823V251.227H310.754V240.54H313.522V243.431L313 242.573C313.361 241.856 313.889 241.311 314.585 240.938C315.28 240.566 316.069 240.38 316.951 240.38C317.94 240.38 318.803 240.633 319.538 241.138C320.287 241.63 320.782 242.38 321.022 243.391L319.959 243.092C320.32 242.268 320.896 241.61 321.684 241.118C322.486 240.626 323.409 240.38 324.452 240.38ZM337.121 251.366C335.904 251.366 334.835 251.133 333.912 250.669C333.003 250.19 332.294 249.538 331.786 248.715C331.291 247.877 331.044 246.934 331.044 245.883C331.044 244.807 331.291 243.856 331.786 243.032C332.281 242.208 332.956 241.563 333.812 241.098C334.668 240.619 335.637 240.38 336.72 240.38C337.776 240.38 338.719 240.606 339.547 241.058C340.39 241.51 341.052 242.148 341.533 242.972C342.014 243.796 342.255 244.78 342.255 245.923C342.255 246.043 342.248 246.176 342.235 246.322C342.235 246.468 342.228 246.601 342.215 246.721H333.391V244.966H340.691L339.547 245.504C339.561 244.933 339.447 244.428 339.207 243.989C338.966 243.55 338.631 243.211 338.204 242.972C337.789 242.733 337.301 242.613 336.74 242.613C336.178 242.613 335.677 242.733 335.236 242.972C334.808 243.211 334.474 243.557 334.233 244.009C334.006 244.448 333.892 244.96 333.892 245.544V246.003C333.892 246.601 334.026 247.133 334.293 247.598C334.574 248.05 334.961 248.402 335.456 248.655C335.951 248.908 336.533 249.034 337.201 249.034C337.776 249.034 338.29 248.947 338.745 248.774C339.2 248.589 339.608 248.309 339.969 247.937L341.533 249.652C341.025 250.21 340.403 250.635 339.668 250.928C338.932 251.22 338.083 251.366 337.121 251.366ZM350.837 240.38C351.706 240.38 352.475 240.553 353.143 240.899C353.812 241.231 354.34 241.742 354.727 242.434C355.129 243.125 355.329 244.015 355.329 245.106V251.227H352.421V245.524C352.421 244.633 352.221 243.976 351.82 243.55C351.418 243.112 350.85 242.892 350.115 242.892C349.581 242.892 349.106 243.006 348.691 243.231C348.277 243.444 347.956 243.77 347.728 244.208C347.501 244.647 347.387 245.205 347.387 245.883V251.227H344.479V240.54H347.247V243.471L346.726 242.573C347.114 241.869 347.662 241.331 348.37 240.958C349.092 240.573 349.914 240.38 350.837 240.38ZM362.579 251.366C361.335 251.366 360.373 251.054 359.691 250.429C359.009 249.805 358.668 248.874 358.668 247.638V238.167H361.556V247.578C361.556 248.043 361.676 248.409 361.917 248.675C362.17 248.94 362.518 249.073 362.96 249.073C363.481 249.073 363.922 248.934 364.283 248.655L365.065 250.688C364.757 250.914 364.384 251.087 363.942 251.207C363.501 251.313 363.046 251.366 362.579 251.366ZM356.963 242.952V240.699H364.323V242.952H356.963ZM371.624 251.366C370.487 251.366 369.478 251.133 368.596 250.669C367.727 250.19 367.038 249.538 366.53 248.715C366.022 247.891 365.768 246.946 365.768 245.883C365.768 244.807 366.022 243.856 366.53 243.032C367.038 242.208 367.727 241.563 368.596 241.098C369.478 240.619 370.487 240.38 371.624 240.38C372.747 240.38 373.75 240.619 374.632 241.098C375.515 241.563 376.203 242.208 376.698 243.032C377.206 243.843 377.46 244.793 377.46 245.883C377.46 246.946 377.206 247.891 376.698 248.715C376.203 249.538 375.515 250.19 374.632 250.669C373.75 251.133 372.747 251.366 371.624 251.366ZM371.624 248.974C372.186 248.974 372.681 248.854 373.108 248.615C373.549 248.362 373.897 248.003 374.151 247.538C374.405 247.06 374.532 246.508 374.532 245.883C374.532 245.232 374.405 244.681 374.151 244.228C373.897 243.763 373.549 243.404 373.108 243.152C372.681 242.899 372.186 242.773 371.624 242.773C371.076 242.773 370.581 242.899 370.14 243.152C369.699 243.404 369.344 243.763 369.077 244.228C368.823 244.681 368.696 245.232 368.696 245.883C368.696 246.508 368.823 247.06 369.077 247.538C369.344 248.003 369.692 248.362 370.12 248.615C370.561 248.854 371.063 248.974 371.624 248.974ZM380.579 251.366C380.071 251.366 379.636 251.193 379.275 250.848C378.915 250.503 378.734 250.064 378.734 249.532C378.734 248.987 378.915 248.549 379.275 248.216C379.636 247.883 380.071 247.718 380.579 247.718C381.088 247.718 381.515 247.883 381.863 248.216C382.224 248.549 382.404 248.987 382.404 249.532C382.404 250.064 382.224 250.503 381.863 250.848C381.515 251.193 381.088 251.366 380.579 251.366Z" fill="#FFDC80"/>
<path d="M124.654 149.141V135.184H130.611C131.868 135.184 132.943 135.384 133.839 135.782C134.748 136.181 135.444 136.759 135.925 137.517C136.42 138.275 136.667 139.172 136.667 140.209C136.667 141.246 136.42 142.136 135.925 142.88C135.444 143.625 134.748 144.196 133.839 144.595C132.943 144.994 131.868 145.193 130.611 145.193H126.319L127.683 143.857V149.141H124.654ZM133.679 149.141L130.149 144.077H133.378L136.928 149.141H133.679ZM127.683 144.196L126.319 142.761H130.47C131.513 142.761 132.302 142.542 132.837 142.103C133.372 141.651 133.639 141.02 133.639 140.209C133.639 139.398 133.372 138.773 132.837 138.334C132.302 137.883 131.513 137.657 130.47 137.657H126.319L127.683 136.221V144.196ZM142.149 140.867H149.008V143.239H142.149V140.867ZM142.37 146.689H150.131V149.141H139.382V135.184H149.851V137.637H142.37V146.689ZM155.725 149.141V137.657H151.173V135.184H163.286V137.657H158.733V149.141H155.725ZM165.116 149.141V135.184H168.145V149.141H165.116ZM171.638 149.141V135.184H177.595C178.852 135.184 179.928 135.384 180.823 135.782C181.733 136.181 182.428 136.759 182.909 137.517C183.404 138.275 183.651 139.172 183.651 140.209C183.651 141.246 183.404 142.136 182.909 142.88C182.428 143.625 181.733 144.196 180.823 144.595C179.928 144.994 178.852 145.193 177.595 145.193H173.303L174.667 143.857V149.141H171.638ZM180.663 149.141L177.133 144.077H180.362L183.912 149.141H180.663ZM174.667 144.196L173.303 142.761H177.454C178.497 142.761 179.286 142.542 179.821 142.103C180.356 141.651 180.623 141.02 180.623 140.209C180.623 139.398 180.356 138.773 179.821 138.334C179.286 137.883 178.497 137.657 177.454 137.657H173.303L174.667 136.221V144.196ZM193.085 149.361C191.988 149.361 190.972 149.181 190.037 148.822C189.1 148.463 188.292 147.958 187.61 147.307C186.928 146.656 186.393 145.898 186.006 145.034C185.631 144.157 185.444 143.2 185.444 142.163C185.444 141.126 185.631 140.175 186.006 139.311C186.393 138.434 186.928 137.67 187.61 137.019C188.292 136.367 189.1 135.862 190.037 135.503C190.972 135.144 191.988 134.965 193.085 134.965C194.181 134.965 195.191 135.144 196.113 135.503C197.049 135.849 197.858 136.347 198.54 136.999C199.222 137.65 199.75 138.414 200.124 139.292C200.512 140.169 200.706 141.126 200.706 142.163C200.706 143.2 200.512 144.157 200.124 145.034C199.75 145.911 199.222 146.675 198.54 147.327C197.858 147.978 197.049 148.483 196.113 148.842C195.191 149.188 194.181 149.361 193.085 149.361ZM193.085 146.808C193.74 146.808 194.341 146.695 194.89 146.469C195.451 146.243 195.939 145.924 196.354 145.512C196.768 145.087 197.089 144.595 197.317 144.037C197.557 143.465 197.678 142.841 197.678 142.163C197.678 141.471 197.557 140.847 197.317 140.288C197.089 139.73 196.768 139.245 196.354 138.833C195.939 138.408 195.451 138.082 194.89 137.856C194.341 137.63 193.74 137.517 193.085 137.517C192.43 137.517 191.822 137.637 191.26 137.876C190.698 138.102 190.21 138.421 189.796 138.833C189.381 139.245 189.06 139.737 188.833 140.308C188.606 140.867 188.492 141.485 188.492 142.163C188.492 142.841 188.606 143.465 188.833 144.037C189.06 144.595 189.381 145.087 189.796 145.512C190.21 145.924 190.698 146.243 191.26 146.469C191.822 146.695 192.43 146.808 193.085 146.808ZM215.046 149.361C213.081 149.361 211.543 148.816 210.433 147.726C209.324 146.636 208.769 145.067 208.769 143.02V135.184H211.797V142.92C211.797 144.276 212.084 145.267 212.659 145.891C213.235 146.503 214.037 146.808 215.066 146.808C216.109 146.808 216.917 146.503 217.493 145.891C218.068 145.267 218.355 144.276 218.355 142.92V135.184H221.323V143.02C221.323 145.067 220.768 146.636 219.659 147.726C218.549 148.816 217.011 149.361 215.046 149.361ZM224.694 149.141V135.184H227.181L233.217 145.173H231.914L237.83 135.184H240.317L240.357 149.141H237.509L237.489 139.551H238.051L233.177 147.626H231.834L226.88 139.551H227.522V149.141H224.694ZM250.566 149.361C249.47 149.361 248.454 149.181 247.518 148.822C246.582 148.463 245.773 147.958 245.091 147.307C244.41 146.656 243.875 145.898 243.487 145.034C243.112 144.157 242.926 143.2 242.926 142.163C242.926 141.126 243.112 140.175 243.487 139.311C243.875 138.434 244.41 137.67 245.091 137.019C245.773 136.367 246.582 135.862 247.518 135.503C248.454 135.144 249.47 134.965 250.566 134.965C251.663 134.965 252.672 135.144 253.595 135.503C254.531 135.849 255.34 136.347 256.021 136.999C256.703 137.65 257.231 138.414 257.606 139.292C257.993 140.169 258.187 141.126 258.187 142.163C258.187 143.2 257.993 144.157 257.606 145.034C257.231 145.911 256.703 146.675 256.021 147.327C255.34 147.978 254.531 148.483 253.595 148.842C252.672 149.188 251.663 149.361 250.566 149.361ZM250.566 146.808C251.222 146.808 251.823 146.695 252.371 146.469C252.933 146.243 253.421 145.924 253.835 145.512C254.25 145.087 254.571 144.595 254.798 144.037C255.039 143.465 255.159 142.841 255.159 142.163C255.159 141.471 255.039 140.847 254.798 140.288C254.571 139.73 254.25 139.245 253.835 138.833C253.421 138.408 252.933 138.082 252.371 137.856C251.823 137.63 251.222 137.517 250.566 137.517C249.911 137.517 249.303 137.637 248.741 137.876C248.18 138.102 247.692 138.421 247.277 138.833C246.863 139.245 246.542 139.737 246.315 140.308C246.088 140.867 245.974 141.485 245.974 142.163C245.974 142.841 246.088 143.465 246.315 144.037C246.542 144.595 246.863 145.087 247.277 145.512C247.692 145.924 248.18 146.243 248.741 146.469C249.303 146.695 249.911 146.808 250.566 146.808ZM260.75 149.141V135.184H267.508C269.246 135.184 270.556 135.516 271.439 136.181C272.335 136.832 272.783 137.71 272.783 138.813C272.783 139.544 272.602 140.182 272.241 140.727C271.88 141.259 271.392 141.671 270.777 141.963C270.175 142.242 269.487 142.382 268.711 142.382L269.092 141.604C269.948 141.604 270.704 141.751 271.359 142.043C272.014 142.322 272.529 142.741 272.903 143.299C273.291 143.857 273.484 144.535 273.484 145.333C273.484 146.529 273.01 147.466 272.061 148.144C271.125 148.809 269.741 149.141 267.909 149.141H260.75ZM263.738 146.868H267.709C268.591 146.868 269.266 146.722 269.734 146.43C270.203 146.124 270.436 145.659 270.436 145.034C270.436 144.409 270.203 143.951 269.734 143.658C269.266 143.352 268.591 143.2 267.709 143.2H263.517V140.966H267.147C267.977 140.966 268.611 140.82 269.052 140.528C269.507 140.235 269.734 139.797 269.734 139.212C269.734 138.627 269.507 138.188 269.052 137.896C268.611 137.603 267.977 137.457 267.147 137.457H263.738V146.868ZM276.046 149.141V135.184H279.074V149.141H276.046ZM287.125 149.141V147.187L292.6 142.023C293.028 141.624 293.349 141.265 293.563 140.946C293.79 140.627 293.937 140.342 294.004 140.089C294.071 139.823 294.104 139.571 294.104 139.331C294.104 138.76 293.904 138.315 293.502 137.996C293.101 137.663 292.513 137.497 291.738 137.497C291.11 137.497 290.534 137.617 290.013 137.856C289.491 138.082 289.05 138.434 288.689 138.913L286.523 137.457C287.058 136.686 287.8 136.081 288.749 135.643C289.699 135.191 290.782 134.965 291.998 134.965C293.041 134.965 293.944 135.131 294.706 135.463C295.482 135.796 296.083 136.267 296.511 136.879C296.939 137.477 297.153 138.195 297.153 139.032C297.153 139.484 297.092 139.936 296.972 140.388C296.852 140.827 296.618 141.299 296.27 141.804C295.936 142.296 295.441 142.847 294.786 143.459L290.193 147.765L289.612 146.669H297.634V149.141H287.125ZM304.992 149.361C303.856 149.361 302.834 149.081 301.924 148.523C301.029 147.952 300.32 147.134 299.798 146.071C299.29 144.994 299.036 143.691 299.036 142.163C299.036 140.634 299.29 139.338 299.798 138.275C300.32 137.198 301.029 136.38 301.924 135.822C302.834 135.251 303.856 134.965 304.992 134.965C306.143 134.965 307.166 135.251 308.061 135.822C308.957 136.38 309.665 137.198 310.187 138.275C310.708 139.338 310.969 140.634 310.969 142.163C310.969 143.691 310.708 144.994 310.187 146.071C309.665 147.134 308.957 147.952 308.061 148.523C307.166 149.081 306.143 149.361 304.992 149.361ZM304.992 146.808C305.581 146.808 306.089 146.649 306.517 146.33C306.958 145.998 307.299 145.492 307.539 144.815C307.794 144.123 307.92 143.239 307.92 142.163C307.92 141.086 307.794 140.209 307.539 139.531C307.299 138.84 306.958 138.334 306.517 138.015C306.089 137.683 305.581 137.517 304.992 137.517C304.431 137.517 303.923 137.683 303.468 138.015C303.027 138.334 302.68 138.84 302.425 139.531C302.185 140.209 302.064 141.086 302.064 142.163C302.064 143.239 302.185 144.123 302.425 144.815C302.68 145.492 303.027 145.998 303.468 146.33C303.923 146.649 304.431 146.808 304.992 146.808ZM312.409 149.141V147.187L317.885 142.023C318.312 141.624 318.633 141.265 318.847 140.946C319.074 140.627 319.222 140.342 319.288 140.089C319.355 139.823 319.389 139.571 319.389 139.331C319.389 138.76 319.188 138.315 318.787 137.996C318.386 137.663 317.798 137.497 317.022 137.497C316.394 137.497 315.819 137.617 315.297 137.856C314.776 138.082 314.335 138.434 313.974 138.913L311.808 137.457C312.343 136.686 313.085 136.081 314.034 135.643C314.983 135.191 316.066 134.965 317.283 134.965C318.326 134.965 319.228 135.131 319.99 135.463C320.766 135.796 321.368 136.267 321.795 136.879C322.223 137.477 322.437 138.195 322.437 139.032C322.437 139.484 322.377 139.936 322.256 140.388C322.136 140.827 321.902 141.299 321.555 141.804C321.22 142.296 320.726 142.847 320.07 143.459L315.478 147.765L314.896 146.669H322.918V149.141H312.409ZM328.813 149.361C327.837 149.361 326.868 149.228 325.905 148.962C324.955 148.696 324.153 148.317 323.498 147.825L324.702 145.512C325.223 145.924 325.837 146.25 326.547 146.489C327.269 146.715 328.003 146.828 328.753 146.828C329.608 146.828 330.277 146.656 330.758 146.31C331.252 145.964 331.5 145.499 331.5 144.914C331.5 144.343 331.28 143.891 330.838 143.558C330.397 143.226 329.688 143.06 328.713 143.06H327.309V141.066L331.26 136.52L331.621 137.637H324.18V135.184H333.927V137.138L329.976 141.664L328.452 140.787H329.334C331.059 140.787 332.355 141.172 333.225 141.943C334.107 142.714 334.549 143.698 334.549 144.894C334.549 145.692 334.341 146.43 333.927 147.107C333.512 147.785 332.884 148.33 332.042 148.742C331.199 149.155 330.123 149.361 328.813 149.361Z" fill="#FFDC80"/>
<path d="M14.2041 239.463L19.7251 230.431L25.246 239.463H14.2041Z" stroke="#FFDC80" stroke-width="2"/>
<path d="M14.2041 239.463L19.7251 230.431L25.246 239.463H14.2041Z" stroke="#FFDC80" stroke-width="2"/>
<path d="M30.5547 229.693C32.9914 229.693 34.9668 227.729 34.9668 225.306C34.9668 222.884 32.9914 220.92 30.5547 220.92C28.1179 220.92 26.1426 222.884 26.1426 225.306C26.1426 227.729 28.1179 229.693 30.5547 229.693Z" stroke="#FD1D1D" stroke-width="2"/>
<path d="M30.5547 229.693C32.9914 229.693 34.9668 227.729 34.9668 225.306C34.9668 222.884 32.9914 220.92 30.5547 220.92C28.1179 220.92 26.1426 222.884 26.1426 225.306C26.1426 227.729 28.1179 229.693 30.5547 229.693Z" stroke="#FD1D1D" stroke-width="2"/>
<path d="M401.666 159.709L407.187 150.677L412.707 159.709H401.666Z" stroke="#FFDC80" stroke-width="2"/>
<path d="M401.666 159.709L407.187 150.677L412.707 159.709H401.666Z" stroke="#FFDC80" stroke-width="2"/>
<path d="M418.017 149.939C420.453 149.939 422.429 147.975 422.429 145.553C422.429 143.13 420.453 141.166 418.017 141.166C415.58 141.166 413.604 143.13 413.604 145.553C413.604 147.975 415.58 149.939 418.017 149.939Z" stroke="#FD1D1D" stroke-width="2"/>
<path d="M427.385 163.748L420.119 155.521" stroke="#2DB4E3" stroke-width="2"/>
<path d="M427.385 163.748L420.119 155.521" stroke="#2DB4E3" stroke-width="2"/>
<path d="M420.119 163.748L427.385 155.521" stroke="#2DB4E3" stroke-width="2"/>
<path d="M39.9234 243.503L32.6572 235.276" stroke="#2DB4E3" stroke-width="2"/>
<path d="M39.9234 243.503L32.6572 235.276" stroke="#2DB4E3" stroke-width="2"/>
<path d="M32.6572 243.503L39.9234 235.276" stroke="#2DB4E3" stroke-width="2"/>
<path d="M32.6572 243.503L39.9234 235.276" stroke="#2DB4E3" stroke-width="2"/>
<path d="M420.119 163.748L427.385 155.521" stroke="#2DB4E3" stroke-width="2"/>
<g clip-path="url(#clip1_2508_1611)">
<path d="M-97.2461 520.599H503.343" stroke="white" stroke-opacity="0.07"/>
<path d="M-97.2461 520.599H503.343" stroke="white" stroke-opacity="0.07"/>
<path d="M-97.2461 520.599H503.343" stroke="white" stroke-opacity="0.07"/>
<g filter="url(#filter1_d_2508_1611)">
<path d="M47.3979 417.175H17.0016C10.0551 417.175 4.42383 422.802 4.42383 429.743V533.953C4.42383 540.894 10.0551 546.521 17.0016 546.521H47.3979C54.3444 546.521 59.9757 540.894 59.9757 533.953V429.743C59.9757 422.802 54.3444 417.175 47.3979 417.175Z" fill="#2DB4E3"/>
</g>
<g filter="url(#filter2_d_2508_1611)">
<path d="M422.635 408.796H392.239C385.292 408.796 379.661 414.423 379.661 421.364V525.574C379.661 532.515 385.292 538.142 392.239 538.142H422.635C429.582 538.142 435.213 532.515 435.213 525.574V421.364C435.213 414.423 429.582 408.796 422.635 408.796Z" fill="#2DB4E3"/>
</g>
<g filter="url(#filter3_d_2508_1611)">
<path d="M166.363 438.121H135.443C128.496 438.121 122.865 443.748 122.865 450.689V554.899C122.865 561.84 128.496 567.467 135.443 567.467H166.363C173.31 567.467 178.941 561.84 178.941 554.899V450.689C178.941 443.748 173.31 438.121 166.363 438.121Z" fill="#2CAFDD"/>
</g>
<g filter="url(#filter4_d_2508_1611)">
<path d="M204.62 405.13H173.7C166.753 405.13 161.122 410.757 161.122 417.698V521.908C161.122 528.849 166.753 534.476 173.7 534.476H204.62C211.567 534.476 217.198 528.849 217.198 521.908V417.698C217.198 410.757 211.567 405.13 204.62 405.13Z" fill="#2A2FA6"/>
</g>
<g filter="url(#filter5_d_2508_1611)">
<path d="M4.42427 393.086H-25.972C-32.9185 393.086 -38.5498 398.713 -38.5498 405.654V524.003C-38.5498 530.944 -32.9185 536.571 -25.972 536.571H4.42427C11.3708 536.571 17.002 530.944 17.002 524.003V405.654C17.002 398.713 11.3708 393.086 4.42427 393.086Z" fill="#FD1D1D"/>
</g>
<g filter="url(#filter6_d_2508_1611)">
<path d="M379.662 384.707H349.265C342.319 384.707 336.688 390.334 336.688 397.275V546.521C336.688 553.462 342.319 559.089 349.265 559.089H379.662C386.608 559.089 392.239 553.462 392.239 546.521V397.275C392.239 390.334 386.608 384.707 379.662 384.707Z" fill="#FD1D1D"/>
</g>
<g filter="url(#filter7_d_2508_1611)">
<path d="M129.678 409.843H98.7575C91.811 409.843 86.1797 415.47 86.1797 422.411V540.76C86.1797 547.701 91.811 553.328 98.7575 553.328H129.678C136.624 553.328 142.256 547.701 142.256 540.76V422.411C142.256 415.47 136.624 409.843 129.678 409.843Z" fill="#F61C1C"/>
</g>
<g filter="url(#filter8_d_2508_1611)">
<path d="M282.183 378.946H251.787C244.84 378.946 239.209 384.573 239.209 391.514V533.952C239.209 540.893 244.84 546.52 251.787 546.52H282.183C289.13 546.52 294.761 540.893 294.761 533.952V391.514C294.761 384.573 289.13 378.946 282.183 378.946Z" fill="#FD1D1D"/>
</g>
<g filter="url(#filter9_d_2508_1611)">
</g>
<g filter="url(#filter10_d_2508_1611)">
<path d="M338.784 412.462H306.815C299.869 412.462 294.237 418.089 294.237 425.03V529.24C294.237 536.181 299.869 541.808 306.815 541.808H338.784C345.73 541.808 351.361 536.181 351.361 529.24V425.03C351.361 418.089 345.73 412.462 338.784 412.462Z" fill="#FDCD2A"/>
</g>
<g filter="url(#filter11_d_2508_1611)">
<path d="M112.907 389.42H65.2164C58.2699 389.42 52.6387 395.047 52.6387 401.988V533.952C52.6387 540.894 58.2699 546.521 65.2164 546.521H112.907C119.854 546.521 125.485 540.894 125.485 533.952V401.988C125.485 395.047 119.854 389.42 112.907 389.42Z" fill="#FDCD2A"/>
</g>
<g filter="url(#filter12_d_2508_1611)">
<path d="M488.144 381.041H440.454C433.507 381.041 427.876 386.668 427.876 393.609V525.574C427.876 532.515 433.507 538.142 440.454 538.142H488.144C495.091 538.142 500.722 532.515 500.722 525.574V393.609C500.722 386.668 495.091 381.041 488.144 381.041Z" fill="#FDCD2A"/>
</g>
<g filter="url(#filter13_d_2508_1611)">
<path d="M253.359 417.175H214.578C207.631 417.175 202 422.802 202 429.743V533.953C202 540.894 207.631 546.521 214.578 546.521H253.359C260.306 546.521 265.937 540.894 265.937 533.953V429.743C265.937 422.802 260.306 417.175 253.359 417.175Z" fill="#FDCD2A"/>
</g>
</g>
</g>
<defs>
<filter id="filter0_f_2508_1611" x="-564" y="286" width="946" height="1062" filterUnits="userSpaceOnUse" color-interpolation-filters="sRGB">
<feFlood flood-opacity="0" result="BackgroundImageFix"/>
<feBlend mode="normal" in="SourceGraphic" in2="BackgroundImageFix" result="shape"/>
<feGaussianBlur stdDeviation="100" result="effect1_foregroundBlur_2508_1611"/>
</filter>
<filter id="filter1_d_2508_1611" x="-25.5762" y="381.175" width="133.552" height="207.346" filterUnits="userSpaceOnUse" color-interpolation-filters="sRGB">
<feFlood flood-opacity="0" result="BackgroundImageFix"/>
<feColorMatrix in="SourceAlpha" type="matrix" values="0 0 0 0 0 0 0 0 0 0 0 0 0 0 0 0 0 0 127 0" result="hardAlpha"/>
<feOffset dx="9" dy="3"/>
<feGaussianBlur stdDeviation="19.5"/>
<feComposite in2="hardAlpha" operator="out"/>
<feColorMatrix type="matrix" values="0 0 0 0 0 0 0 0 0 0 0 0 0 0 0 0 0 0 0.52 0"/>
<feBlend mode="normal" in2="BackgroundImageFix" result="effect1_dropShadow_2508_1611"/>
<feBlend mode="normal" in="SourceGraphic" in2="effect1_dropShadow_2508_1611" result="shape"/>
</filter>
<filter id="filter2_d_2508_1611" x="349.661" y="372.796" width="133.552" height="207.346" filterUnits="userSpaceOnUse" color-interpolation-filters="sRGB">
<feFlood flood-opacity="0" result="BackgroundImageFix"/>
<feColorMatrix in="SourceAlpha" type="matrix" values="0 0 0 0 0 0 0 0 0 0 0 0 0 0 0 0 0 0 127 0" result="hardAlpha"/>
<feOffset dx="9" dy="3"/>
<feGaussianBlur stdDeviation="19.5"/>
<feComposite in2="hardAlpha" operator="out"/>
<feColorMatrix type="matrix" values="0 0 0 0 0 0 0 0 0 0 0 0 0 0 0 0 0 0 0.52 0"/>
<feBlend mode="normal" in2="BackgroundImageFix" result="effect1_dropShadow_2508_1611"/>
<feBlend mode="normal" in="SourceGraphic" in2="effect1_dropShadow_2508_1611" result="shape"/>
</filter>
<filter id="filter3_d_2508_1611" x="92.8652" y="402.121" width="134.076" height="207.346" filterUnits="userSpaceOnUse" color-interpolation-filters="sRGB">
<feFlood flood-opacity="0" result="BackgroundImageFix"/>
<feColorMatrix in="SourceAlpha" type="matrix" values="0 0 0 0 0 0 0 0 0 0 0 0 0 0 0 0 0 0 127 0" result="hardAlpha"/>
<feOffset dx="9" dy="3"/>
<feGaussianBlur stdDeviation="19.5"/>
<feComposite in2="hardAlpha" operator="out"/>
<feColorMatrix type="matrix" values="0 0 0 0 0 0 0 0 0 0 0 0 0 0 0 0 0 0 0.52 0"/>
<feBlend mode="normal" in2="BackgroundImageFix" result="effect1_dropShadow_2508_1611"/>
<feBlend mode="normal" in="SourceGraphic" in2="effect1_dropShadow_2508_1611" result="shape"/>
</filter>
<filter id="filter4_d_2508_1611" x="131.122" y="369.13" width="134.076" height="207.346" filterUnits="userSpaceOnUse" color-interpolation-filters="sRGB">
<feFlood flood-opacity="0" result="BackgroundImageFix"/>
<feColorMatrix in="SourceAlpha" type="matrix" values="0 0 0 0 0 0 0 0 0 0 0 0 0 0 0 0 0 0 127 0" result="hardAlpha"/>
<feOffset dx="9" dy="3"/>
<feGaussianBlur stdDeviation="19.5"/>
<feComposite in2="hardAlpha" operator="out"/>
<feColorMatrix type="matrix" values="0 0 0 0 0 0 0 0 0 0 0 0 0 0 0 0 0 0 0.52 0"/>
<feBlend mode="normal" in2="BackgroundImageFix" result="effect1_dropShadow_2508_1611"/>
<feBlend mode="normal" in="SourceGraphic" in2="effect1_dropShadow_2508_1611" result="shape"/>
</filter>
<filter id="filter5_d_2508_1611" x="-68.5498" y="357.086" width="133.552" height="221.485" filterUnits="userSpaceOnUse" color-interpolation-filters="sRGB">
<feFlood flood-opacity="0" result="BackgroundImageFix"/>
<feColorMatrix in="SourceAlpha" type="matrix" values="0 0 0 0 0 0 0 0 0 0 0 0 0 0 0 0 0 0 127 0" result="hardAlpha"/>
<feOffset dx="9" dy="3"/>
<feGaussianBlur stdDeviation="19.5"/>
<feComposite in2="hardAlpha" operator="out"/>
<feColorMatrix type="matrix" values="0 0 0 0 0 0 0 0 0 0 0 0 0 0 0 0 0 0 0.52 0"/>
<feBlend mode="normal" in2="BackgroundImageFix" result="effect1_dropShadow_2508_1611"/>
<feBlend mode="normal" in="SourceGraphic" in2="effect1_dropShadow_2508_1611" result="shape"/>
</filter>
<filter id="filter6_d_2508_1611" x="306.688" y="348.707" width="133.552" height="252.382" filterUnits="userSpaceOnUse" color-interpolation-filters="sRGB">
<feFlood flood-opacity="0" result="BackgroundImageFix"/>
<feColorMatrix in="SourceAlpha" type="matrix" values="0 0 0 0 0 0 0 0 0 0 0 0 0 0 0 0 0 0 127 0" result="hardAlpha"/>
<feOffset dx="9" dy="3"/>
<feGaussianBlur stdDeviation="19.5"/>
<feComposite in2="hardAlpha" operator="out"/>
<feColorMatrix type="matrix" values="0 0 0 0 0 0 0 0 0 0 0 0 0 0 0 0 0 0 0.52 0"/>
<feBlend mode="normal" in2="BackgroundImageFix" result="effect1_dropShadow_2508_1611"/>
<feBlend mode="normal" in="SourceGraphic" in2="effect1_dropShadow_2508_1611" result="shape"/>
</filter>
<filter id="filter7_d_2508_1611" x="56.1797" y="373.843" width="134.076" height="221.485" filterUnits="userSpaceOnUse" color-interpolation-filters="sRGB">
<feFlood flood-opacity="0" result="BackgroundImageFix"/>
<feColorMatrix in="SourceAlpha" type="matrix" values="0 0 0 0 0 0 0 0 0 0 0 0 0 0 0 0 0 0 127 0" result="hardAlpha"/>
<feOffset dx="9" dy="3"/>
<feGaussianBlur stdDeviation="19.5"/>
<feComposite in2="hardAlpha" operator="out"/>
<feColorMatrix type="matrix" values="0 0 0 0 0 0 0 0 0 0 0 0 0 0 0 0 0 0 0.52 0"/>
<feBlend mode="normal" in2="BackgroundImageFix" result="effect1_dropShadow_2508_1611"/>
<feBlend mode="normal" in="SourceGraphic" in2="effect1_dropShadow_2508_1611" result="shape"/>
</filter>
<filter id="filter8_d_2508_1611" x="209.209" y="342.946" width="133.552" height="245.574" filterUnits="userSpaceOnUse" color-interpolation-filters="sRGB">
<feFlood flood-opacity="0" result="BackgroundImageFix"/>
<feColorMatrix in="SourceAlpha" type="matrix" values="0 0 0 0 0 0 0 0 0 0 0 0 0 0 0 0 0 0 127 0" result="hardAlpha"/>
<feOffset dx="9" dy="3"/>
<feGaussianBlur stdDeviation="19.5"/>
<feComposite in2="hardAlpha" operator="out"/>
<feColorMatrix type="matrix" values="0 0 0 0 0 0 0 0 0 0 0 0 0 0 0 0 0 0 0.52 0"/>
<feBlend mode="normal" in2="BackgroundImageFix" result="effect1_dropShadow_2508_1611"/>
<feBlend mode="normal" in="SourceGraphic" in2="effect1_dropShadow_2508_1611" result="shape"/>
</filter>
<filter id="filter9_d_2508_1611" x="-111" y="381.175" width="135.124" height="207.346" filterUnits="userSpaceOnUse" color-interpolation-filters="sRGB">
<feFlood flood-opacity="0" result="BackgroundImageFix"/>
<feColorMatrix in="SourceAlpha" type="matrix" values="0 0 0 0 0 0 0 0 0 0 0 0 0 0 0 0 0 0 127 0" result="hardAlpha"/>
<feOffset dx="9" dy="3"/>
<feGaussianBlur stdDeviation="19.5"/>
<feComposite in2="hardAlpha" operator="out"/>
<feColorMatrix type="matrix" values="0 0 0 0 0 0 0 0 0 0 0 0 0 0 0 0 0 0 0.52 0"/>
<feBlend mode="normal" in2="BackgroundImageFix" result="effect1_dropShadow_2508_1611"/>
<feBlend mode="normal" in="SourceGraphic" in2="effect1_dropShadow_2508_1611" result="shape"/>
</filter>
<filter id="filter10_d_2508_1611" x="264.237" y="376.462" width="135.124" height="207.346" filterUnits="userSpaceOnUse" color-interpolation-filters="sRGB">
<feFlood flood-opacity="0" result="BackgroundImageFix"/>
<feColorMatrix in="SourceAlpha" type="matrix" values="0 0 0 0 0 0 0 0 0 0 0 0 0 0 0 0 0 0 127 0" result="hardAlpha"/>
<feOffset dx="9" dy="3"/>
<feGaussianBlur stdDeviation="19.5"/>
<feComposite in2="hardAlpha" operator="out"/>
<feColorMatrix type="matrix" values="0 0 0 0 0 0 0 0 0 0 0 0 0 0 0 0 0 0 0.52 0"/>
<feBlend mode="normal" in2="BackgroundImageFix" result="effect1_dropShadow_2508_1611"/>
<feBlend mode="normal" in="SourceGraphic" in2="effect1_dropShadow_2508_1611" result="shape"/>
</filter>
<filter id="filter11_d_2508_1611" x="22.6387" y="353.42" width="150.847" height="235.101" filterUnits="userSpaceOnUse" color-interpolation-filters="sRGB">
<feFlood flood-opacity="0" result="BackgroundImageFix"/>
<feColorMatrix in="SourceAlpha" type="matrix" values="0 0 0 0 0 0 0 0 0 0 0 0 0 0 0 0 0 0 127 0" result="hardAlpha"/>
<feOffset dx="9" dy="3"/>
<feGaussianBlur stdDeviation="19.5"/>
<feComposite in2="hardAlpha" operator="out"/>
<feColorMatrix type="matrix" values="0 0 0 0 0 0 0 0 0 0 0 0 0 0 0 0 0 0 0.52 0"/>
<feBlend mode="normal" in2="BackgroundImageFix" result="effect1_dropShadow_2508_1611"/>
<feBlend mode="normal" in="SourceGraphic" in2="effect1_dropShadow_2508_1611" result="shape"/>
</filter>
<filter id="filter12_d_2508_1611" x="397.876" y="345.041" width="150.847" height="235.101" filterUnits="userSpaceOnUse" color-interpolation-filters="sRGB">
<feFlood flood-opacity="0" result="BackgroundImageFix"/>
<feColorMatrix in="SourceAlpha" type="matrix" values="0 0 0 0 0 0 0 0 0 0 0 0 0 0 0 0 0 0 127 0" result="hardAlpha"/>
<feOffset dx="9" dy="3"/>
<feGaussianBlur stdDeviation="19.5"/>
<feComposite in2="hardAlpha" operator="out"/>
<feColorMatrix type="matrix" values="0 0 0 0 0 0 0 0 0 0 0 0 0 0 0 0 0 0 0.52 0"/>
<feBlend mode="normal" in2="BackgroundImageFix" result="effect1_dropShadow_2508_1611"/>
<feBlend mode="normal" in="SourceGraphic" in2="effect1_dropShadow_2508_1611" result="shape"/>
</filter>
<filter id="filter13_d_2508_1611" x="172" y="381.175" width="141.938" height="207.346" filterUnits="userSpaceOnUse" color-interpolation-filters="sRGB">
<feFlood flood-opacity="0" result="BackgroundImageFix"/>
<feColorMatrix in="SourceAlpha" type="matrix" values="0 0 0 0 0 0 0 0 0 0 0 0 0 0 0 0 0 0 127 0" result="hardAlpha"/>
<feOffset dx="9" dy="3"/>
<feGaussianBlur stdDeviation="19.5"/>
<feComposite in2="hardAlpha" operator="out"/>
<feColorMatrix type="matrix" values="0 0 0 0 0 0 0 0 0 0 0 0 0 0 0 0 0 0 0.52 0"/>
<feBlend mode="normal" in2="BackgroundImageFix" result="effect1_dropShadow_2508_1611"/>
<feBlend mode="normal" in="SourceGraphic" in2="effect1_dropShadow_2508_1611" result="shape"/>
</filter>
<clipPath id="clip0_2508_1611">
<rect width="459" height="535" fill="white"/>
</clipPath>
<clipPath id="clip1_2508_1611">
<rect width="566" height="177" fill="white" transform="translate(-81 358)"/>
</clipPath>
</defs>
</svg>
